<?xml version="1.0" standalone="no"?>
<!DOCTYPE svg PUBLIC "-//W3C//DTD SVG 20010904//EN"
 "http://www.w3.org/TR/2001/REC-SVG-20010904/DTD/svg10.dtd">
<svg version="1.0" xmlns="http://www.w3.org/2000/svg"
 width="442.000000pt" height="442.000000pt" viewBox="0 0 442.000000 442.000000"
 preserveAspectRatio="xMidYMid meet">
<metadata>
Created by potrace 1.11, written by Peter Selinger 2001-2013
</metadata>
<g transform="translate(0.000000,442.000000) scale(0.100000,-0.100000)"
fill="#000000" stroke="none">
<path d="M851 4321 c-18 -5 -45 -18 -59 -28 -65 -48 -48 44 -324 -1775 -142
-937 -259 -1721 -260 -1743 -1 -22 9 -63 21 -90 55 -125 185 -197 373 -209 46
-2 70 -2 55 0 -25 5 -27 9 -22 37 15 85 65 440 63 442 -2 1 -37 12 -78 25 -96
28 -198 81 -240 125 l-33 34 13 94 c7 52 16 100 20 107 6 9 19 5 51 -17 61
-42 122 -72 203 -99 78 -27 106 -30 106 -11 0 7 70 486 155 1065 85 580 155
1059 155 1066 0 8 -29 21 -67 31 -91 25 -210 86 -252 129 l-34 35 12 88 c21
146 15 137 69 99 102 -73 311 -152 312 -118 0 4 14 93 29 197 16 105 26 193
23 196 -4 4 -38 16 -77 27 -38 12 -95 36 -125 54 -53 32 -92 79 -77 94 15 15
117 15 237 0 249 -32 2474 -383 2611 -411 l25 -6 -13 -67 c-8 -36 -15 -67 -16
-68 -1 -2 -373 53 -827 120 -454 68 -827 121 -829 120 -2 -2 2 -45 10 -96 27
-180 11 -482 -32 -596 -9 -23 -10 -22 -47 25 -33 41 -94 98 -163 151 -15 11
-27 5 -85 -39 -64 -49 -136 -87 -193 -104 -23 -7 -24 -6 -17 31 42 250 46 515
9 644 l-18 65 -70 12 c-39 6 -92 14 -120 17 l-50 7 -253 -1728 c-139 -950
-257 -1740 -262 -1755 -9 -27 -8 -28 30 -28 21 0 650 -95 1398 -210 748 -116
1367 -210 1375 -210 8 0 24 8 36 18 20 15 51 185 316 1702 162 927 295 1697
295 1711 0 55 -23 67 -175 89 -205 30 -188 23 -180 77 8 54 17 76 50 122 31
42 31 53 3 85 -22 24 -60 31 -768 145 -1906 308 -2187 348 -2289 322z m2848
-1035 c45 -24 97 -89 121 -152 65 -172 13 -448 -121 -649 -46 -68 -188 -215
-208 -215 -17 0 42 -144 80 -196 20 -28 68 -74 106 -102 79 -58 98 -87 96
-143 -3 -71 -48 -122 -250 -288 -61 -50 -128 -113 -147 -140 -102 -139 -304
-287 -583 -426 l-142 -71 -89 -120 c-48 -65 -106 -131 -128 -146 -45 -32 -99
-36 -143 -13 -37 19 -113 104 -153 170 l-31 53 -51 -15 c-28 -8 -101 -41 -161
-73 -143 -76 -212 -94 -331 -87 -151 9 -234 61 -295 185 -22 43 -24 61 -27
242 -3 170 -1 208 18 295 12 55 24 112 27 126 4 21 -6 41 -51 95 -65 82 -128
188 -158 270 -31 84 -32 222 -1 280 29 54 93 110 162 143 45 21 70 26 131 26
89 -1 143 -23 265 -111 52 -37 83 -53 91 -48 6 5 47 39 89 77 241 208 613 397
847 428 180 25 373 1 481 -60 21 -11 43 -21 50 -21 40 0 202 146 263 237 49
74 90 184 109 293 19 111 31 140 65 157 32 16 35 16 69 -1z"/>
<path d="M3641 3203 c-5 -21 -17 -75 -26 -121 -39 -198 -155 -380 -310 -487
l-55 -38 60 -54 c33 -30 79 -83 102 -119 23 -35 45 -64 49 -64 16 0 124 114
172 182 92 130 157 324 157 469 0 84 -33 181 -79 229 -21 22 -43 40 -49 40 -6
0 -16 -17 -21 -37z"/>
<path d="M2651 2629 c-187 -33 -437 -151 -671 -319 -258 -184 -478 -428 -579
-643 -36 -78 -85 -242 -100 -337 -6 -36 -11 -135 -11 -220 0 -141 2 -159 24
-205 48 -103 105 -146 217 -164 71 -12 172 -1 235 25 21 9 68 34 104 55 36 21
99 50 140 65 70 24 89 26 270 28 139 2 216 8 268 20 94 21 246 90 392 176 320
189 478 367 541 611 19 72 21 102 16 224 -5 157 -23 230 -85 350 -44 83 -169
213 -253 263 -106 62 -159 75 -314 78 -77 2 -164 -2 -194 -7z m-266 -511 c63
-33 117 -87 147 -147 19 -39 23 -62 23 -146 0 -90 -3 -105 -28 -153 -37 -70
-97 -128 -166 -161 -45 -21 -71 -26 -131 -26 -44 0 -83 6 -95 13 -19 13 -18
13 6 8 14 -3 54 -1 88 5 143 23 241 107 277 237 16 57 16 66 1 128 -23 91 -68
151 -142 189 -50 26 -69 30 -134 29 -89 -1 -135 -20 -199 -85 -52 -51 -111
-170 -119 -239 -3 -30 -10 -49 -17 -47 -29 10 -9 127 39 229 38 81 87 132 158
168 59 30 67 31 152 28 72 -4 100 -9 140 -30z m-396 -844 c70 -89 -52 -195
-129 -112 -20 22 -28 92 -11 102 4 3 6 -5 4 -18 -11 -55 79 -90 111 -44 21 29
20 57 -1 80 -9 10 -11 18 -5 18 6 0 20 -12 31 -26z"/>
<path d="M1262 2259 c-135 -67 -177 -149 -148 -290 19 -90 69 -194 142 -294
l56 -76 32 68 c66 146 152 271 273 396 36 38 63 70 61 72 -20 20 -175 114
-218 132 -76 31 -124 29 -198 -8z"/>
<path d="M3549 1937 c4 -105 -11 -203 -45 -297 -13 -35 -21 -66 -19 -68 8 -8
196 160 221 197 27 40 31 92 9 115 -9 8 -37 32 -63 52 -26 21 -60 50 -77 66
l-30 27 4 -92z"/>
<path d="M2510 868 c-25 -6 -114 -11 -197 -11 -84 0 -153 -3 -153 -6 0 -3 12
-24 28 -47 76 -113 141 -162 190 -143 15 6 35 18 46 27 20 19 146 179 146 187
0 6 -3 6 -60 -7z"/>
</g>
</svg>
